<svg width="25" height="26" viewBox="0 0 25 26" fill="none" xmlns="http://www.w3.org/2000/svg">
<path d="M12.5005 23.2071C18.1379 23.2071 22.7079 18.637 22.7079 12.9996C22.7079 7.36216 18.1379 2.79211 12.5005 2.79211C6.86302 2.79211 2.29297 7.36216 2.29297 12.9996C2.29297 18.637 6.86302 23.2071 12.5005 23.2071Z" fill="#FFE000"/>
<path d="M18.75 19.25C22.2018 15.7982 22.2018 10.2017 18.75 6.74996C15.2982 3.29818 9.70177 3.29817 6.24999 6.74995C2.79822 10.2017 2.79822 15.7982 6.25001 19.2499C9.70179 22.7017 15.2982 22.7017 18.75 19.25Z" fill="#FFC200"/>
<path opacity="0.35" d="M11.6174 16.7702C10.1604 18.6845 9.12223 20.5996 8.37549 22.3385C9.63697 22.8965 11.0324 23.2071 12.5005 23.2071C18.138 23.2071 22.708 18.6371 22.708 12.9996C22.708 11.456 22.3647 9.99276 21.7513 8.68109C18.4668 10.2271 14.6942 12.7277 11.6174 16.7702Z" fill="#FFE000"/>
<path d="M9.44414 5.07022C8.85401 5.07022 8.37564 4.59182 8.37564 4.00171C8.37564 4.59184 7.89724 5.07022 7.30713 5.07022C7.89724 5.07022 8.37564 5.5486 8.37564 6.13872C8.37564 5.5486 8.85403 5.07022 9.44414 5.07022Z" fill="white"/>
</svg>
